<?xml version="1.0" encoding="UTF-8"?>
<!DOCTYPE svg PUBLIC "-//W3C//DTD SVG 1.1//EN" "http://www.w3.org/Graphics/SVG/1.1/DTD/svg11.dtd">
<!-- Creator: CorelDRAW X8 -->
<svg xmlns="http://www.w3.org/2000/svg" xml:space="preserve" width="37mm" height="7mm" version="1.1" style="shape-rendering:geometricPrecision; text-rendering:geometricPrecision; image-rendering:optimizeQuality; fill-rule:evenodd; clip-rule:evenodd"
viewBox="0 0 3700 700"
 xmlns:xlink="http://www.w3.org/1999/xlink">
 <defs>
  <style type="text/css">
   <![CDATA[
    .fil0 {fill:#FEFEFE}
   ]]>
  </style>
 </defs>
 <g id="Camada_x0020_1">
  <metadata id="CorelCorpID_0Corel-Layer"/>
  <path class="fil0" d="M540 491c-2,-38 15,-139 72,-139l1 0 0 0 0 0 1 0 0 0 0 0 1 1 0 0 0 0 1 0 0 0 0 0 0 0 1 0 0 0 0 0 1 0 0 0 0 0 0 0 1 0 0 0 0 0 1 0 0 1 0 0 1 0 0 0 0 0 0 0 1 0 0 0 0 0 0 1 0 0 1 0 0 0 0 0 1 0 0 0 0 0 0 1 1 0 0 0 0 0 0 0 1 0 0 0 0 1 0 0 0 0 1 0 0 0 0 1 0 0 1 0 0 0 0 0 0 0 0 1 0 0 1 0 0 0 0 1 0 0 1 0 0 0 0 0 0 1 0 0 1 0 0 0 0 1 0 0 0 0 0 0 0 1 1 0 0 0 0 1 0 0 0 0 0 0 1 1 0 0 0 0 0 0 0 1 0 0 0 0 1 1 0 0 0 0 0 0 0 1 0 0 0 1 0 0 0 0 1 0 0 1 0 0 0 0 0 1 0 0 0 1 0 0 0 0 0 0 1 1 0 0 0 1 0 0 0 0 0 1 0 0 0 0 0 1c3,14 1,34 -9,54l0 1 0 0 -1 1 -1 3 -1 2 0 0 -1 2 0 0 0 1 -1 2 0 0 -1 1 -1 2 -1 1 0 0 -1 2 0 0 -1 1 0 1 -1 1 -1 1 0 0 -1 2 0 0 -1 1 -1 1 0 0 -1 2 0 0 -1 1 -1 1 0 1 -1 1 0 0 -1 1 -1 1 -1 1 -1 1 0 0 -1 1 -1 1 0 1 -1 1 0 0 -2 1 0 1 -1 1 -1 1 0 0 -2 1 0 0 -1 1 -1 1 0 0 -2 2 0 0 -1 1 -2 1 -1 1 0 0 -2 1 0 1 -1 0 -1 1 -1 1 -1 1 0 0 -2 1 -1 0 0 1 -2 1 0 0 -1 1 -1 0 -1 1 -1 1 -1 0 -1 1 -1 0 -1 1 -1 1 -1 0 -1 1 -1 0 -1 1 -1 0 -1 1 -2 0 0 0 -1 1 -1 1 -1 0 -2 1 0 0 -2 1 0 0 -2 1 -1 0 0 0 -2 1 -1 0 -1 1 -1 0 -1 1 -2 0c0,-5 -1,-11 -1,-16zm2944 -281c40,0 71,-25 71,-55 0,-32 -31,-56 -71,-56 -39,0 -70,24 -70,56 0,30 31,55 70,55zm-2929 347c203,-47 229,-266 68,-266 -90,0 -179,87 -179,203 0,14 2,28 5,41 -12,37 -33,79 -72,79 -28,0 -40,-22 -40,-42l0 -489c0,-50 -100,-44 -100,-30 0,6 11,8 11,34l0 206c-127,14 -235,95 -235,234 0,96 59,147 150,147 44,0 78,-16 104,-36 44,53 157,52 219,-33 75,86 224,85 306,33 25,17 78,36 125,36 48,0 86,-14 114,-33 11,-3 90,1 160,-46 75,105 265,100 350,17 59,81 211,87 279,-4 41,11 94,9 132,-8 0,39 -7,74 56,74 33,0 32,-22 32,-39l0 -133c8,-72 81,-151 115,-151 22,0 24,24 24,52l0 185c0,93 131,116 207,42 35,60 145,59 206,-3 43,62 151,72 217,-18 17,76 138,90 208,17 48,60 151,64 211,11 43,53 145,49 203,-11 36,72 197,81 256,-94 9,-29 -54,-72 -68,-17 -11,40 -32,99 -78,99 -31,0 -31,-34 -31,-42l0 -231c0,-46 -93,-51 -93,-25 0,6 5,12 5,29l0 158c-2,4 -4,8 -5,12 -34,136 -118,110 -118,57l0 -150c0,-46 -93,-51 -93,-25 0,6 5,12 5,29l0 140c-13,26 -34,48 -66,48 -41,0 -66,-28 -66,-75 0,-131 104,-190 192,-190 34,0 49,11 49,-19 0,-24 -22,-39 -53,-39 -143,0 -278,93 -278,245 0,7 0,14 1,21 -13,30 -33,57 -64,57 -30,0 -30,-34 -30,-42l0 -231c0,-50 -101,-45 -101,-30 0,6 12,8 12,34l0 147c-14,63 -49,123 -96,123 -34,0 -54,-27 -54,-76 0,-76 13,-117 34,-184 5,-14 36,-50 -22,-50 -61,0 -50,18 -58,34 0,0 -42,108 -42,205 0,16 -27,70 -68,70 -24,0 -40,-13 -40,-42l0 -289c62,0 66,1 160,-1 30,0 40,-88 8,-61 -80,3 -96,3 -168,3l0 -159c0,-50 -100,-45 -100,-30 0,6 12,8 12,34l0 154c-63,-1 -105,-3 -105,-3 -34,0 -13,61 24,61 0,0 29,2 81,2l0 245c-12,39 -33,86 -75,86 -30,0 -30,-34 -30,-42l0 -189c0,-42 -19,-92 -97,-92 -57,0 -99,40 -131,91l0 -41c0,-46 -93,-51 -93,-25 0,6 5,12 5,29l0 153c-5,45 -57,75 -108,64 39,-103 7,-251 -83,-251 -124,0 -124,192 -10,268 -43,60 -153,49 -153,-80 0,-90 35,-124 54,-146 30,-15 7,-63 -24,-63 -25,0 -119,81 -119,214 0,11 1,21 2,31 -21,42 -62,79 -133,79 -188,0 -119,-262 -35,-262 39,0 42,34 47,50 -7,31 74,13 74,-21 0,-32 -30,-90 -111,-90 -111,0 -190,106 -190,211 0,9 1,18 2,27 -15,24 -42,44 -88,52 33,-96 -69,-157 -121,-228 2,-5 28,-35 28,-62 0,-86 -141,-14 -141,31 0,16 7,29 19,43l-56 134c-4,15 -10,31 -18,46 -15,0 -32,16 -32,39 -52,43 -163,45 -201,-27zm-307 21c-15,20 -37,36 -67,36 -41,0 -79,-28 -79,-93 0,-114 70,-157 146,-168l0 225zm610 -11l1 -2 25 -74 25 -60 4 -9 5 -9 11 10 19 16c30,29 54,60 54,103 0,17 -15,56 -30,55l-114 -30zm915 -47c-27,-27 -44,-66 -44,-107 0,-28 7,-42 20,-42 24,0 28,45 28,107 0,14 -2,27 -4,42z"/>
 </g>
</svg>
